<?xml version="1.0" encoding="UTF-8"?>
<!DOCTYPE svg PUBLIC "-//W3C//DTD SVG 1.1//EN" "http://www.w3.org/Graphics/SVG/1.1/DTD/svg11.dtd">
<svg xmlns="http://www.w3.org/2000/svg" version="1.1" width="1147px" height="908px" style="shape-rendering:geometricPrecision; text-rendering:geometricPrecision; image-rendering:optimizeQuality; fill-rule:evenodd; clip-rule:evenodd" xmlns:xlink="http://www.w3.org/1999/xlink">
<g><path style="opacity:1" fill="#f1f1ed" d="M -0.5,-0.5 C 381.833,-0.5 764.167,-0.5 1146.5,-0.5C 1146.5,302.167 1146.5,604.833 1146.5,907.5C 764.167,907.5 381.833,907.5 -0.5,907.5C -0.5,604.833 -0.5,302.167 -0.5,-0.5 Z"/></g>
<g><path style="opacity:1" fill="#171717" d="M 560.5,4.5 C 613.86,3.61276 666.526,9.11276 718.5,21C 733.94,25.0358 749.107,29.8692 764,35.5C 742.45,110.369 720.95,185.369 699.5,260.5C 625.018,232.482 549.351,228.982 472.5,250C 462.642,253.008 452.976,256.508 443.5,260.5C 420.527,185.756 398.694,110.756 378,35.5C 417.691,21.8269 458.525,12.9936 500.5,9C 520.625,7.06304 540.625,5.56304 560.5,4.5 Z"/></g>
<g><path style="opacity:1" fill="#f2f2ee" d="M 546.5,8.5 C 599.364,6.24116 651.697,10.4078 703.5,21C 722.934,25.2744 741.934,30.9411 760.5,38C 738.593,110.222 717.593,182.722 697.5,255.5C 613.626,224.938 529.793,224.938 446,255.5C 445.5,255.167 445,254.833 444.5,254.5C 423.521,182.528 402.521,110.528 381.5,38.5C 390.079,34.2678 399.079,31.1012 408.5,29C 453.998,17.8105 499.998,10.9772 546.5,8.5 Z"/></g>
<g><path style="opacity:1" fill="#171717" d="M 345.5,49.5 C 348.05,49.5608 349.55,50.8941 350,53.5C 377.695,123.056 405.528,192.556 433.5,262C 402.989,276.272 374.989,294.605 349.5,317C 342.952,324.044 336.619,331.21 330.5,338.5C 269.192,292.519 208.192,246.186 147.5,199.5C 173.687,163.146 205.02,131.98 241.5,106C 274.032,83.2341 308.699,64.4008 345.5,49.5 Z"/></g>
<g><path style="opacity:1" fill="#161615" d="M 788.5,49.5 C 859.955,76.6291 922.122,117.629 975,172.5C 982.111,180.568 988.611,189.068 994.5,198C 994.241,199.261 993.574,200.261 992.5,201C 931.309,247.692 869.975,294.192 808.5,340.5C 804.101,333.596 798.768,327.429 792.5,322C 766.004,299.265 737.67,279.265 707.5,262C 734.806,191.244 761.806,120.411 788.5,49.5 Z"/></g>
<g><path style="opacity:1" fill="#f1f1ed" d="M 343.5,53.5 C 345.124,53.3601 346.29,54.0267 347,55.5C 374.432,123.747 401.932,192.247 429.5,261C 390.939,278.077 357.605,302.243 329.5,333.5C 273.167,291 216.833,248.5 160.5,206C 157.601,203.723 154.934,201.223 152.5,198.5C 179.757,161.41 212.424,129.91 250.5,104C 279.739,84.0449 310.739,67.2115 343.5,53.5 Z"/></g>
<g><path style="opacity:1" fill="#f1f1ed" d="M 789.5,54.5 C 860.577,80.7814 922.077,121.448 974,176.5C 979.691,183.356 985.191,190.356 990.5,197.5C 930.385,243.731 870.052,289.731 809.5,335.5C 799.03,323.866 787.697,313.032 775.5,303C 755.193,287.508 733.86,273.508 711.5,261C 738.348,192.404 764.348,123.571 789.5,54.5 Z"/></g>
<g><path style="opacity:1" fill="#080808" d="M 525.5,147.5 C 524.596,148.209 524.263,149.209 524.5,150.5C 532.5,150.5 540.5,150.5 548.5,150.5C 548.5,152.5 548.5,154.5 548.5,156.5C 537.167,156.5 525.833,156.5 514.5,156.5C 514.5,154.833 514.5,153.167 514.5,151.5C 515.452,147.604 517.452,144.271 520.5,141.5C 525.662,137.751 530.996,134.251 536.5,131C 543.931,119.084 540.597,113.751 526.5,115C 523.038,117.239 521.705,120.406 522.5,124.5C 519.5,124.5 516.5,124.5 513.5,124.5C 513.371,116.464 517.037,110.964 524.5,108C 533.75,105.612 541.584,107.779 548,114.5C 551.568,123.679 549.402,131.179 541.5,137C 535.967,140.262 530.634,143.762 525.5,147.5 Z"/></g>
<g><path style="opacity:1" fill="#090908" d="M 567.5,107.5 C 579.631,105.644 587.131,110.644 590,122.5C 591.045,131.642 590.379,140.642 588,149.5C 581.772,158.714 573.606,160.881 563.5,156C 559.286,151.706 556.786,146.539 556,140.5C 555.076,132.366 555.742,124.366 558,116.5C 560.406,112.592 563.572,109.592 567.5,107.5 Z"/></g>
<g><path style="opacity:1" fill="#060606" d="M 627.5,156.5 C 624.833,156.5 622.167,156.5 619.5,156.5C 619.813,152.958 619.479,149.625 618.5,146.5C 610.833,146.5 603.167,146.5 595.5,146.5C 595.336,143.813 595.503,141.146 596,138.5C 603.621,128.757 611.121,118.923 618.5,109C 621.482,108.502 624.482,108.335 627.5,108.5C 627.5,118.833 627.5,129.167 627.5,139.5C 629.833,139.5 632.167,139.5 634.5,139.5C 634.5,141.833 634.5,144.167 634.5,146.5C 632.167,146.5 629.833,146.5 627.5,146.5C 627.5,149.833 627.5,153.167 627.5,156.5 Z"/></g>
<g><path style="opacity:1" fill="#ecece8" d="M 570.5,114.5 C 577.226,113.725 580.726,116.725 581,123.5C 581.667,130.167 581.667,136.833 581,143.5C 579.075,150.965 574.741,152.965 568,149.5C 564.142,140.108 563.475,130.441 566,120.5C 566.804,117.854 568.304,115.854 570.5,114.5 Z"/></g>
<g><path style="opacity:1" fill="#393939" d="M 617.5,120.5 C 617.56,119.957 617.893,119.624 618.5,119.5C 619.817,125.988 619.817,132.322 618.5,138.5C 618.823,132.31 618.49,126.31 617.5,120.5 Z"/></g>
<g><path style="opacity:1" fill="#e5e5e1" d="M 617.5,120.5 C 618.49,126.31 618.823,132.31 618.5,138.5C 614.019,139.648 609.352,139.815 604.5,139C 609.442,133.231 613.775,127.064 617.5,120.5 Z"/></g>
<g><path style="opacity:1" fill="#7c7c7a" d="M 525.5,147.5 C 532.946,149.153 540.612,150.153 548.5,150.5C 540.5,150.5 532.5,150.5 524.5,150.5C 524.263,149.209 524.596,148.209 525.5,147.5 Z"/></g>
<g><path style="opacity:1" fill="#2f2f2f" d="M 548.5,150.5 C 549.468,152.607 549.802,154.941 549.5,157.5C 537.5,157.5 525.5,157.5 513.5,157.5C 513.205,155.265 513.539,153.265 514.5,151.5C 514.5,153.167 514.5,154.833 514.5,156.5C 525.833,156.5 537.167,156.5 548.5,156.5C 548.5,154.5 548.5,152.5 548.5,150.5 Z"/></g>
<g><path style="opacity:1" fill="#3d3d3c" d="M 618.5,146.5 C 619.479,149.625 619.813,152.958 619.5,156.5C 622.167,156.5 624.833,156.5 627.5,156.5C 624.713,157.477 621.713,157.81 618.5,157.5C 618.5,153.833 618.5,150.167 618.5,146.5 Z"/></g>
<g><path style="opacity:1" fill="#0a0a0a" d="M 252.5,216.5 C 251.957,216.56 251.624,216.893 251.5,217.5C 259.807,218.498 268.14,218.831 276.5,218.5C 276.5,220.833 276.5,223.167 276.5,225.5C 264.833,225.5 253.167,225.5 241.5,225.5C 241.079,219.675 242.913,214.675 247,210.5C 253.95,205.885 260.616,200.885 267,195.5C 269.522,184.689 265.355,180.522 254.5,183C 251.125,185.248 249.459,188.415 249.5,192.5C 246.833,192.5 244.167,192.5 241.5,192.5C 240.867,185.598 243.534,180.431 249.5,177C 257.471,174.525 265.138,175.192 272.5,179C 278.246,185.754 278.746,192.921 274,200.5C 266.855,205.976 259.688,211.309 252.5,216.5 Z"/></g>
<g><path style="opacity:1" fill="#0c0c0c" d="M 294.5,175.5 C 305.44,173.402 312.94,177.402 317,187.5C 319.821,198.911 318.821,209.911 314,220.5C 308.289,226.117 301.455,227.95 293.5,226C 288.374,222.525 285.208,217.691 284,211.5C 281.313,201.406 282.313,191.739 287,182.5C 289.396,179.933 291.896,177.6 294.5,175.5 Z"/></g>
<g><path style="opacity:1" fill="#0b0b0b" d="M 346.5,204.5 C 344.393,203.532 342.059,203.198 339.5,203.5C 339.5,201.167 339.5,198.833 339.5,196.5C 348.593,197.073 351.593,193.073 348.5,184.5C 340.292,180.085 335.625,182.418 334.5,191.5C 331.833,191.5 329.167,191.5 326.5,191.5C 326.5,189.833 326.5,188.167 326.5,186.5C 327.473,181.353 330.473,177.853 335.5,176C 340.167,175.333 344.833,175.333 349.5,176C 358.036,178.911 360.869,184.745 358,193.5C 356.833,196 355,197.833 352.5,199C 354.849,201.07 357.016,203.237 359,205.5C 361.614,214.199 359.114,220.699 351.5,225C 344.362,227.22 337.362,226.886 330.5,224C 326.35,220.029 324.35,215.196 324.5,209.5C 327.167,209.5 329.833,209.5 332.5,209.5C 332.94,218.763 337.607,221.929 346.5,219C 349.666,217.334 351,214.668 350.5,211C 351.225,207.466 349.892,205.299 346.5,204.5 Z"/></g>
<g><path style="opacity:1" fill="#090909" d="M 788.5,216.5 C 787.957,216.56 787.624,216.893 787.5,217.5C 795.807,218.498 804.14,218.831 812.5,218.5C 812.5,220.5 812.5,222.5 812.5,224.5C 801.167,224.5 789.833,224.5 778.5,224.5C 778.5,223.167 778.5,221.833 778.5,220.5C 778.547,217.072 779.713,214.072 782,211.5C 786.561,207.134 791.728,203.634 797.5,201C 800.04,198.795 802.207,196.295 804,193.5C 805.344,186.008 802.177,182.341 794.5,182.5C 788.189,182.818 785.522,186.152 786.5,192.5C 783.5,192.5 780.5,192.5 777.5,192.5C 776.805,184.048 780.472,178.548 788.5,176C 797.71,173.694 805.544,175.861 812,182.5C 814.406,188.846 813.739,194.846 810,200.5C 802.855,205.976 795.688,211.309 788.5,216.5 Z"/></g>
<g><path style="opacity:1" fill="#090908" d="M 830.5,175.5 C 841.386,173.358 848.886,177.358 853,187.5C 855.794,198.916 854.794,209.916 850,220.5C 843.402,227.043 835.902,228.209 827.5,224C 822.824,220.316 820.324,215.483 820,209.5C 819.188,201.778 819.522,194.111 821,186.5C 822.798,181.518 825.965,177.851 830.5,175.5 Z"/></g>
<g><path style="opacity:1" fill="#090908" d="M 863.5,214.5 C 865.635,212.631 868.302,211.964 871.5,212.5C 871.933,215.195 873.266,217.362 875.5,219C 887.651,220.838 892.151,215.671 889,203.5C 884.003,197.543 878.503,197.043 872.5,202C 869.854,202.497 867.187,202.664 864.5,202.5C 865.332,193.847 865.998,185.18 866.5,176.5C 876.167,176.5 885.833,176.5 895.5,176.5C 895.5,178.833 895.5,181.167 895.5,183.5C 888.167,183.5 880.833,183.5 873.5,183.5C 873.105,187.185 872.938,190.852 873,194.5C 881.421,189.927 889.088,190.927 896,197.5C 902.468,218.704 894.634,228.204 872.5,226C 867.026,224.034 864.026,220.201 863.5,214.5 Z"/></g>
<g><path style="opacity:1" fill="#ecece8" d="M 833.5,182.5 C 839.862,181.594 843.695,184.26 845,190.5C 845.667,197.167 845.667,203.833 845,210.5C 843.047,219.486 838.38,221.486 831,216.5C 828.574,207.658 827.907,198.658 829,189.5C 829.904,186.767 831.404,184.433 833.5,182.5 Z"/></g>
<g><path style="opacity:1" fill="#ecece8" d="M 297.5,182.5 C 305.552,182.19 309.386,186.19 309,194.5C 309.818,200.902 309.484,207.235 308,213.5C 304.908,220.07 300.574,221.07 295,216.5C 294.138,214.913 293.471,213.246 293,211.5C 292.333,204.167 292.333,196.833 293,189.5C 294.012,186.798 295.512,184.465 297.5,182.5 Z"/></g>
<g><path style="opacity:1" fill="#777775" d="M 326.5,186.5 C 326.5,188.167 326.5,189.833 326.5,191.5C 329.167,191.5 331.833,191.5 334.5,191.5C 331.713,192.477 328.713,192.81 325.5,192.5C 325.205,190.265 325.539,188.265 326.5,186.5 Z"/></g>
<g><path style="opacity:1" fill="#8d8d8b" d="M 339.5,196.5 C 339.5,198.833 339.5,201.167 339.5,203.5C 342.059,203.198 344.393,203.532 346.5,204.5C 343.833,204.5 341.167,204.5 338.5,204.5C 338.194,201.615 338.527,198.948 339.5,196.5 Z"/></g>
<g><path style="opacity:1" fill="#999996" d="M 871.5,212.5 C 868.302,211.964 865.635,212.631 863.5,214.5C 862.596,213.791 862.263,212.791 862.5,211.5C 865.713,211.19 868.713,211.523 871.5,212.5 Z"/></g>
<g><path style="opacity:1" fill="#777775" d="M 252.5,216.5 C 260.5,217.167 268.5,217.833 276.5,218.5C 268.14,218.831 259.807,218.498 251.5,217.5C 251.624,216.893 251.957,216.56 252.5,216.5 Z"/></g>
<g><path style="opacity:1" fill="#5a5a58" d="M 788.5,216.5 C 796.5,217.167 804.5,217.833 812.5,218.5C 804.14,218.831 795.807,218.498 787.5,217.5C 787.624,216.893 787.957,216.56 788.5,216.5 Z"/></g>
<g><path style="opacity:1" fill="#3a3a39" d="M 778.5,220.5 C 778.5,221.833 778.5,223.167 778.5,224.5C 789.833,224.5 801.167,224.5 812.5,224.5C 801.012,225.495 789.345,225.828 777.5,225.5C 777.216,223.585 777.549,221.919 778.5,220.5 Z"/></g>
<g><path style="opacity:1" fill="#7b7b79" d="M 595.5,257.5 C 592.5,257.5 589.5,257.5 586.5,257.5C 586.768,259.099 586.434,260.432 585.5,261.5C 585.5,259.833 585.5,258.167 585.5,256.5C 589.042,256.187 592.375,256.521 595.5,257.5 Z"/></g>
<g><path style="opacity:1" fill="#161616" d="M 528.5,257.5 C 537.5,257.5 546.5,257.5 555.5,257.5C 557.944,314.162 560.278,370.828 562.5,427.5C 524.593,428.626 492.093,442.293 465,468.5C 430.136,434.635 394.969,401.135 359.5,368C 354.454,363.289 349.787,358.289 345.5,353C 379.699,311.858 422.699,283.858 474.5,269C 492.334,263.801 510.334,259.968 528.5,257.5 Z"/></g>
<g><path style="opacity:1" fill="#151515" d="M 595.5,257.5 C 649.665,262.385 698.998,280.218 743.5,311C 762.555,324.388 778.555,340.721 791.5,360C 754.231,394.598 716.897,429.264 679.5,464C 677.656,465.182 675.823,466.349 674,467.5C 660.488,454.985 645.321,444.818 628.5,437C 612.652,431.33 596.318,428.164 579.5,427.5C 581.555,372.169 583.555,316.835 585.5,261.5C 586.434,260.432 586.768,259.099 586.5,257.5C 589.5,257.5 592.5,257.5 595.5,257.5 Z"/></g>
<g><path style="opacity:1" fill="#f1f1ed" d="M 532.5,260.5 C 539.167,260.5 545.833,260.5 552.5,260.5C 554.611,315.163 556.611,369.829 558.5,424.5C 522.468,426.114 491.301,439.114 465,463.5C 426.197,427.031 387.697,390.198 349.5,353C 388.54,308.462 437.207,279.796 495.5,267C 507.899,264.379 520.233,262.212 532.5,260.5 Z"/></g>
<g><path style="opacity:1" fill="#f1f1ed" d="M 589.5,260.5 C 650.7,264.725 705.367,285.558 753.5,323C 766.647,333.807 777.98,346.141 787.5,360C 750.2,393.632 713.2,427.632 676.5,462C 675.167,462.667 673.833,462.667 672.5,462C 647.449,437.919 617.449,425.419 582.5,424.5C 584.833,369.833 587.167,315.167 589.5,260.5 Z"/></g>
<g><path style="opacity:1" fill="#161616" d="M 1055.5,277.5 C 1057.37,277.859 1058.87,278.859 1060,280.5C 1097.8,343.135 1121.8,410.802 1132,483.5C 1140.42,541.341 1141.58,599.341 1135.5,657.5C 1058.83,644.499 982.164,631.499 905.5,618.5C 912.682,553.25 903.182,490.583 877,430.5C 872.262,420.018 866.762,410.018 860.5,400.5C 925.733,359.725 990.733,318.725 1055.5,277.5 Z"/></g>
<g><path style="opacity:1" fill="#171717" d="M 85.5,278.5 C 151.111,317.976 216.445,357.976 281.5,398.5C 253.367,446.608 237.867,498.608 235,554.5C 234.183,576.868 234.683,599.201 236.5,621.5C 161.22,632.873 85.8864,643.873 10.5,654.5C -10.7131,519.742 14.2869,394.409 85.5,278.5 Z"/></g>
<g><path style="opacity:1" fill="#f2f2ee" d="M 1054.5,282.5 C 1056.37,282.859 1057.87,283.859 1059,285.5C 1088.49,334.283 1109.15,386.617 1121,442.5C 1136.1,512.221 1139.94,582.554 1132.5,653.5C 1057.85,640.704 983.187,628.037 908.5,615.5C 916.972,539.524 902.638,468.191 865.5,401.5C 928.396,361.559 991.396,321.892 1054.5,282.5 Z"/></g>
<g><path style="opacity:1" fill="#f2f2ee" d="M 86.5,283.5 C 88.3084,283.491 89.9751,283.991 91.5,285C 153.364,323.094 215.03,361.428 276.5,400C 249.641,447.931 234.475,499.431 231,554.5C 230.183,575.872 230.683,597.205 232.5,618.5C 161.006,629.118 89.506,639.785 18,650.5C 16.5643,650.441 15.231,650.108 14,649.5C -5.24548,529.639 13.7545,416.306 71,309.5C 75.9263,300.64 81.093,291.974 86.5,283.5 Z"/></g>
<g><path style="opacity:1" fill="#070707" d="M 460.5,339.5 C 473.157,337.665 480.657,342.998 483,355.5C 484.682,365.663 483.349,375.33 479,384.5C 473.72,390.17 467.22,392.004 459.5,390C 454.449,387.28 451.282,383.113 450,377.5C 447.273,366.442 448.273,355.775 453,345.5C 455.134,342.847 457.634,340.847 460.5,339.5 Z"/></g>
<g><path style="opacity:1" fill="#0a0a0a" d="M 501.5,339.5 C 508.549,338.718 515.216,339.885 521.5,343C 528.657,352.423 527.657,361.09 518.5,369C 511.717,372.378 505.717,376.711 500.5,382C 508.827,382.5 517.16,382.666 525.5,382.5C 525.5,384.833 525.5,387.167 525.5,389.5C 513.833,389.5 502.167,389.5 490.5,389.5C 490.462,384.314 491.962,379.647 495,375.5C 499.893,371.609 505.06,368.109 510.5,365C 513.04,362.795 515.207,360.295 517,357.5C 517.8,348.308 513.633,344.808 504.5,347C 500.345,348.811 498.345,351.977 498.5,356.5C 495.833,356.5 493.167,356.5 490.5,356.5C 489.925,347.962 493.592,342.296 501.5,339.5 Z"/></g>
<g><path style="opacity:1" fill="#0b0b0b" d="M 650.5,339.5 C 663.508,338.007 671.341,343.674 674,356.5C 675.461,366.735 673.794,376.401 669,385.5C 663.731,390.245 657.564,391.745 650.5,390C 645.011,387.532 641.511,383.365 640,377.5C 636.933,365.862 638.267,354.862 644,344.5C 646.326,342.934 648.492,341.268 650.5,339.5 Z"/></g>
<g><path style="opacity:1" fill="#080808" d="M 680.5,377.5 C 680.5,376.5 680.5,375.5 680.5,374.5C 683.167,374.5 685.833,374.5 688.5,374.5C 689.443,383.077 694.109,385.911 702.5,383C 706.277,380.045 707.443,376.212 706,371.5C 702.96,368.034 699.126,366.7 694.5,367.5C 694.5,365.167 694.5,362.833 694.5,360.5C 703.352,361.817 706.852,358.15 705,349.5C 702.005,346.735 698.505,345.902 694.5,347C 692.181,348.147 690.848,349.981 690.5,352.5C 689.596,353.209 689.263,354.209 689.5,355.5C 687.167,355.5 684.833,355.5 682.5,355.5C 682.5,353.5 682.5,351.5 682.5,349.5C 683.921,344.91 686.921,341.744 691.5,340C 697.724,338.939 703.724,339.606 709.5,342C 715.142,347.432 715.976,353.599 712,360.5C 710.414,361.376 708.914,362.376 707.5,363.5C 715.067,367.241 717.567,373.241 715,381.5C 711.188,388.323 705.355,391.323 697.5,390.5C 687.832,391.186 682.165,386.852 680.5,377.5 Z"/></g>
<g><path style="opacity:1" fill="#0d0d0c" d="M 430.5,340.5 C 432.833,340.5 435.167,340.5 437.5,340.5C 437.5,356.833 437.5,373.167 437.5,389.5C 434.5,389.5 431.5,389.5 428.5,389.5C 428.5,377.5 428.5,365.5 428.5,353.5C 424.833,353.5 421.167,353.5 417.5,353.5C 417.5,352.167 417.5,350.833 417.5,349.5C 421.44,349.242 425.107,348.076 428.5,346C 429.861,344.416 430.528,342.582 430.5,340.5 Z"/></g>
<g><path style="opacity:1" fill="#0f0f0f" d="M 619.5,389.5 C 619.5,377.5 619.5,365.5 619.5,353.5C 615.833,353.5 612.167,353.5 608.5,353.5C 607.566,352.432 607.232,351.099 607.5,349.5C 614.608,349.964 619.275,346.964 621.5,340.5C 623.833,340.5 626.167,340.5 628.5,340.5C 628.5,356.833 628.5,373.167 628.5,389.5C 625.5,389.5 622.5,389.5 619.5,389.5 Z"/></g>
<g><path style="opacity:1" fill="#ecece8" d="M 463.5,346.5 C 470.333,346.163 473.833,349.496 474,356.5C 474.848,363.899 474.515,371.233 473,378.5C 469.455,384.209 465.121,384.875 460,380.5C 456.697,370.141 456.697,359.808 460,349.5C 461.145,348.364 462.312,347.364 463.5,346.5 Z"/></g>
<g><path style="opacity:1" fill="#ebebe7" d="M 653.5,346.5 C 660.658,346.487 664.491,350.154 665,357.5C 665.689,363.882 665.355,370.215 664,376.5C 660.772,384.481 656.105,385.481 650,379.5C 647.175,370.597 646.842,361.597 649,352.5C 650.332,350.34 651.832,348.34 653.5,346.5 Z"/></g>
<g><path style="opacity:1" fill="#b1b1ae" d="M 608.5,353.5 C 612.167,353.5 615.833,353.5 619.5,353.5C 619.5,365.5 619.5,377.5 619.5,389.5C 618.505,378.012 618.172,366.345 618.5,354.5C 614.958,354.813 611.625,354.479 608.5,353.5 Z"/></g>
<g><path style="opacity:1" fill="#525251" d="M 682.5,349.5 C 682.5,351.5 682.5,353.5 682.5,355.5C 684.833,355.5 687.167,355.5 689.5,355.5C 689.263,354.209 689.596,353.209 690.5,352.5C 690.5,353.833 690.5,355.167 690.5,356.5C 687.5,356.5 684.5,356.5 681.5,356.5C 681.198,353.941 681.532,351.607 682.5,349.5 Z"/></g>
<g><path style="opacity:1" fill="#626260" d="M 688.5,374.5 C 685.833,374.5 683.167,374.5 680.5,374.5C 680.5,375.5 680.5,376.5 680.5,377.5C 679.566,376.432 679.232,375.099 679.5,373.5C 682.713,373.19 685.713,373.523 688.5,374.5 Z"/></g>
<g><path style="opacity:1" fill="#161616" d="M 296.5,410.5 C 345.132,440.78 393.798,471.113 442.5,501.5C 433.319,517.212 427.819,534.212 426,552.5C 421.64,586.181 427.14,618.015 442.5,648C 396.625,680.526 350.459,712.693 304,744.5C 275.809,696.115 259.809,643.781 256,587.5C 251.228,524.177 264.728,465.177 296.5,410.5 Z"/></g>
<g><path style="opacity:1" fill="#171716" d="M 843.5,411.5 C 851.559,425.137 858.392,439.471 864,454.5C 895.523,541.274 893.523,627.274 858,712.5C 852.847,724.147 846.68,735.147 839.5,745.5C 793.579,713.29 747.746,680.956 702,648.5C 707.626,634.62 712.292,620.287 716,605.5C 722.61,569.335 717.777,534.835 701.5,502C 748.699,471.57 796.033,441.404 843.5,411.5 Z"/></g>
<g><path style="opacity:1" fill="#f1f1ed" d="M 297.5,415.5 C 344.821,443.825 391.487,473.158 437.5,503.5C 423.659,531.524 418.493,561.191 422,592.5C 424.103,610.696 429.103,628.029 437,644.5C 437.667,645.833 437.667,647.167 437,648.5C 393.254,678.957 349.42,709.29 305.5,739.5C 298.649,729.137 292.816,718.137 288,706.5C 257.867,635.299 251.2,561.966 268,486.5C 275.573,461.962 285.406,438.295 297.5,415.5 Z"/></g>
<g><path style="opacity:1" fill="#f1f1ed" d="M 722.5,574.5 C 722.799,566.604 722.132,558.937 720.5,551.5C 718.518,534.408 713.518,518.241 705.5,503C 751.033,473.969 796.7,445.136 842.5,416.5C 885.449,499.328 893.949,585.661 868,675.5C 861.147,698.574 851.314,720.24 838.5,740.5C 794.028,709.194 749.694,677.694 705.5,646C 716.824,623.557 722.49,599.724 722.5,574.5 Z"/></g>
<g><path style="opacity:1" fill="#131313" d="M 787.5,892.5 C 729.336,893.499 671.002,893.832 612.5,893.5C 526.332,893.833 440.332,893.499 354.5,892.5C 402.039,822.592 449.706,752.759 497.5,683C 478.625,667.786 463.791,649.286 453,627.5C 432.646,576.932 439.312,530.266 473,487.5C 509.957,449.883 554.124,437.383 605.5,450C 661.5,466.999 693.333,504.499 701,562.5C 703.395,600.317 692.062,633.317 667,661.5C 659.738,669.099 652.238,676.266 644.5,683C 691.8,753.105 739.467,822.939 787.5,892.5 Z"/></g>
<g><path style="opacity:1" fill="#f2f2ee" d="M 779.5,887.5 C 724.007,889.166 668.341,890.166 612.5,890.5C 528.332,890.833 444.332,890.499 360.5,889.5C 408.018,820.478 455.351,751.311 502.5,682C 449.089,640.433 433.256,587.6 455,523.5C 470.713,487.38 497.546,463.88 535.5,453C 578.256,442.773 617.256,450.773 652.5,477C 691.175,511.695 705.009,554.528 694,605.5C 684.365,637.127 666.198,662.627 639.5,682C 686.294,750.425 732.961,818.925 779.5,887.5 Z"/></g>
<g><path style="opacity:1" fill="#090909" d="M 74.5,502.5 C 73.9569,502.56 73.6236,502.893 73.5,503.5C 81.8068,504.498 90.1401,504.831 98.5,504.5C 98.5,506.833 98.5,509.167 98.5,511.5C 86.8333,511.5 75.1667,511.5 63.5,511.5C 63.2975,506.275 64.7975,501.608 68,497.5C 72.8932,493.609 78.0598,490.109 83.5,487C 90.061,482.135 91.061,476.468 86.5,470C 77.1874,466.691 72.1874,469.857 71.5,479.5C 68.8333,479.5 66.1667,479.5 63.5,479.5C 62.4229,470.147 66.4229,464.314 75.5,462C 92.5752,459.411 100.075,466.578 98,483.5C 97.0853,484.328 96.4186,485.328 96,486.5C 89.2115,492.463 82.0448,497.797 74.5,502.5 Z"/></g>
<g><path style="opacity:1" fill="#0b0b0b" d="M 117.5,461.5 C 131.037,460.013 138.537,466.013 140,479.5C 141.439,488.924 140.106,497.924 136,506.5C 126.945,515.818 117.945,515.818 109,506.5C 102.207,492.231 103.041,478.564 111.5,465.5C 113.29,463.684 115.29,462.351 117.5,461.5 Z"/></g>
<g><path style="opacity:1" fill="#070707" d="M 155.5,478.5 C 152.833,478.5 150.167,478.5 147.5,478.5C 147.5,476.833 147.5,475.167 147.5,473.5C 148.994,467.175 152.994,463.341 159.5,462C 176.096,459.272 183.596,466.105 182,482.5C 180.439,485.783 178.273,488.617 175.5,491C 168.939,494.44 162.939,498.606 157.5,503.5C 165.807,504.498 174.14,504.831 182.5,504.5C 182.5,506.833 182.5,509.167 182.5,511.5C 170.833,511.5 159.167,511.5 147.5,511.5C 146.971,506.676 148.138,502.343 151,498.5C 156.063,494.051 161.563,490.217 167.5,487C 174.061,482.135 175.061,476.468 170.5,470C 161.61,466.436 156.61,469.269 155.5,478.5 Z"/></g>
<g><path style="opacity:1" fill="#080808" d="M 971.5,461.5 C 990.907,460.045 997.74,468.378 992,486.5C 984.731,492.543 977.231,498.209 969.5,503.5C 977.807,504.498 986.14,504.831 994.5,504.5C 994.5,506.833 994.5,509.167 994.5,511.5C 982.833,511.5 971.167,511.5 959.5,511.5C 959.338,506.818 960.505,502.485 963,498.5C 970.619,493.216 977.952,487.549 985,481.5C 986.671,470.507 982.171,466.674 971.5,470C 968.038,472.239 966.705,475.406 967.5,479.5C 964.833,479.5 962.167,479.5 959.5,479.5C 958.54,470.063 962.54,464.063 971.5,461.5 Z"/></g>
<g><path style="opacity:1" fill="#0b0b0b" d="M 1013.5,461.5 C 1025.97,460.457 1033.47,466.124 1036,478.5C 1037.4,488.258 1036.06,497.592 1032,506.5C 1023.54,515.205 1014.87,515.538 1006,507.5C 998.758,493.854 998.758,480.188 1006,466.5C 1008.48,464.686 1010.98,463.019 1013.5,461.5 Z"/></g>
<g><path style="opacity:1" fill="#0b0b0b" d="M 1077.5,471.5 C 1075.36,473.369 1072.7,474.036 1069.5,473.5C 1067.31,468.89 1063.65,467.39 1058.5,469C 1053.27,472.007 1051.11,476.507 1052,482.5C 1056.48,478.757 1061.65,477.591 1067.5,479C 1077.17,483.383 1080.67,490.883 1078,501.5C 1073.58,510.995 1066.08,514.828 1055.5,513C 1048.04,510.534 1043.87,505.368 1043,497.5C 1041.37,487.355 1042.7,477.688 1047,468.5C 1053.49,461.404 1061.32,459.571 1070.5,463C 1074.14,464.805 1076.48,467.638 1077.5,471.5 Z"/></g>
<g><path style="opacity:1" fill="#e8e8e4" d="M 120.5,468.5 C 124.273,467.822 127.106,469.156 129,472.5C 131.989,481.358 132.323,490.358 130,499.5C 127.523,505.45 123.357,506.95 117.5,504C 112.881,493.71 112.381,483.21 116,472.5C 117.397,470.93 118.897,469.596 120.5,468.5 Z"/></g>
<g><path style="opacity:1" fill="#eaeae6" d="M 1016.5,468.5 C 1019.5,468.253 1022,469.253 1024,471.5C 1028.61,482.177 1028.61,492.844 1024,503.5C 1021.08,505.393 1017.92,505.893 1014.5,505C 1010.82,499.27 1009.15,492.937 1009.5,486C 1009.24,481.594 1010.07,477.427 1012,473.5C 1013.02,471.313 1014.52,469.646 1016.5,468.5 Z"/></g>
<g><path style="opacity:1" fill="#979794" d="M 1077.5,471.5 C 1078.4,472.209 1078.74,473.209 1078.5,474.5C 1075.29,474.81 1072.29,474.477 1069.5,473.5C 1072.7,474.036 1075.36,473.369 1077.5,471.5 Z"/></g>
<g><path style="opacity:1" fill="#696968" d="M 147.5,473.5 C 147.5,475.167 147.5,476.833 147.5,478.5C 150.167,478.5 152.833,478.5 155.5,478.5C 152.713,479.477 149.713,479.81 146.5,479.5C 146.205,477.265 146.539,475.265 147.5,473.5 Z"/></g>
<g><path style="opacity:1" fill="#ebebe7" d="M 1058.5,485.5 C 1067.87,486.218 1071.37,491.218 1069,500.5C 1066.1,505.155 1061.94,506.655 1056.5,505C 1051.78,501.746 1050.28,497.246 1052,491.5C 1053.44,488.558 1055.6,486.558 1058.5,485.5 Z"/></g>
<g><path style="opacity:1" fill="#b2b2af" d="M 74.5,502.5 C 82.5,503.167 90.5,503.833 98.5,504.5C 90.1401,504.831 81.8068,504.498 73.5,503.5C 73.6236,502.893 73.9569,502.56 74.5,502.5 Z"/></g>
<g><path style="opacity:1" fill="#0b0b0b" d="M 332.5,545.5 C 345.846,543.742 353.679,549.409 356,562.5C 357.298,571.468 356.298,580.135 353,588.5C 349.98,594.348 345.146,597.348 338.5,597.5C 328.89,596.39 323.39,591.056 322,581.5C 321.13,573.103 321.463,564.77 323,556.5C 325.314,552.025 328.48,548.358 332.5,545.5 Z"/></g>
<g><path style="opacity:1" fill="#0c0c0b" d="M 501.5,579.5 C 504.385,579.194 507.052,579.527 509.5,580.5C 508.559,589.611 503.559,595.111 494.5,597C 475.807,598.997 465.807,590.664 464.5,572C 465.439,552.057 475.773,543.39 495.5,546C 504.015,548.34 508.681,553.84 509.5,562.5C 506.5,562.5 503.5,562.5 500.5,562.5C 499.868,557.695 497.201,554.528 492.5,553C 483.001,551.487 477.168,555.321 475,564.5C 472.501,574.676 475.335,582.843 483.5,589C 492.951,591.78 498.951,588.614 501.5,579.5 Z"/></g>
<g><path style="opacity:1" fill="#0e0e0d" d="M 790.5,545.5 C 803.935,544.095 811.769,550.095 814,563.5C 815.525,574.216 813.358,584.049 807.5,593C 792.83,601.088 783.33,596.921 779,580.5C 777.429,570.385 778.762,560.718 783,551.5C 785.478,549.361 787.978,547.361 790.5,545.5 Z"/></g>
<g><path style="opacity:1" fill="#0c0c0c" d="M 303.5,546.5 C 305.833,546.5 308.167,546.5 310.5,546.5C 310.5,562.833 310.5,579.167 310.5,595.5C 307.5,595.5 304.5,595.5 301.5,595.5C 301.5,583.5 301.5,571.5 301.5,559.5C 297.833,559.5 294.167,559.5 290.5,559.5C 290.5,558.167 290.5,556.833 290.5,555.5C 297.566,556.153 301.9,553.153 303.5,546.5 Z"/></g>
<g><path style="opacity:1" fill="#020201" d="M 375.5,547.5 C 377.5,547.5 379.5,547.5 381.5,547.5C 381.5,563.5 381.5,579.5 381.5,595.5C 378.833,595.5 376.167,595.5 373.5,595.5C 373.828,583.655 373.495,571.988 372.5,560.5C 369.375,559.521 366.042,559.187 362.5,559.5C 362.5,558.167 362.5,556.833 362.5,555.5C 368.632,555.607 372.966,552.94 375.5,547.5 Z"/></g>
<g><path style="opacity:1" fill="#5c5c5a" d="M 375.5,547.5 C 377.607,546.532 379.941,546.198 382.5,546.5C 382.83,563.009 382.496,579.342 381.5,595.5C 381.5,579.5 381.5,563.5 381.5,547.5C 379.5,547.5 377.5,547.5 375.5,547.5 Z"/></g>
<g><path style="opacity:1" fill="#020202" d="M 761.5,547.5 C 763.5,547.5 765.5,547.5 767.5,547.5C 767.5,563.5 767.5,579.5 767.5,595.5C 764.833,595.5 762.167,595.5 759.5,595.5C 759.828,583.655 759.495,571.988 758.5,560.5C 755.375,559.521 752.042,559.187 748.5,559.5C 748.5,558.167 748.5,556.833 748.5,555.5C 754.632,555.607 758.966,552.94 761.5,547.5 Z"/></g>
<g><path style="opacity:1" fill="#767674" d="M 761.5,547.5 C 763.607,546.532 765.941,546.198 768.5,546.5C 768.83,563.009 768.496,579.342 767.5,595.5C 767.5,579.5 767.5,563.5 767.5,547.5C 765.5,547.5 763.5,547.5 761.5,547.5 Z"/></g>
<g><path style="opacity:1" fill="#060606" d="M 857.5,584.5 C 855.167,584.5 852.833,584.5 850.5,584.5C 850.5,588.167 850.5,591.833 850.5,595.5C 847.833,595.5 845.167,595.5 842.5,595.5C 842.5,591.833 842.5,588.167 842.5,584.5C 834.833,584.5 827.167,584.5 819.5,584.5C 819.5,582.167 819.5,579.833 819.5,577.5C 826.398,567.256 833.731,557.256 841.5,547.5C 844.428,546.516 847.428,546.183 850.5,546.5C 850.5,556.833 850.5,567.167 850.5,577.5C 852.833,577.5 855.167,577.5 857.5,577.5C 857.5,579.833 857.5,582.167 857.5,584.5 Z"/></g>
<g><path style="opacity:1" fill="#ecece8" d="M 335.5,552.5 C 342.57,552.068 346.403,555.402 347,562.5C 348.05,570.663 347.383,578.663 345,586.5C 337.389,591.866 332.722,589.866 331,580.5C 330.333,573.833 330.333,567.167 331,560.5C 331.738,557.352 333.238,554.685 335.5,552.5 Z"/></g>
<g><path style="opacity:1" fill="#ebebe7" d="M 793.5,552.5 C 798.963,551.784 802.463,554.117 804,559.5C 804.667,566.833 804.667,574.167 804,581.5C 802.243,589.488 797.91,591.488 791,587.5C 789.438,585.043 788.438,582.376 788,579.5C 787.333,573.5 787.333,567.5 788,561.5C 788.837,557.843 790.67,554.843 793.5,552.5 Z"/></g>
<g><path style="opacity:1" fill="#6f6f6e" d="M 362.5,555.5 C 362.5,556.833 362.5,558.167 362.5,559.5C 366.042,559.187 369.375,559.521 372.5,560.5C 368.833,560.5 365.167,560.5 361.5,560.5C 361.216,558.585 361.549,556.919 362.5,555.5 Z"/></g>
<g><path style="opacity:1" fill="#0b0b0b" d="M 595.5,579.5 C 586.5,579.5 577.5,579.5 568.5,579.5C 568.263,580.791 568.596,581.791 569.5,582.5C 572.254,591.876 577.754,593.876 586,588.5C 586.483,587.552 586.649,586.552 586.5,585.5C 589.167,585.5 591.833,585.5 594.5,585.5C 593.586,590.258 590.919,593.758 586.5,596C 566.558,599.724 558.058,591.558 561,571.5C 561.9,566.263 564.734,562.429 569.5,560C 577.314,557.372 584.48,558.538 591,563.5C 594.625,568.211 596.125,573.544 595.5,579.5 Z"/></g>
<g><path style="opacity:1" fill="#0d0d0d" d="M 655.5,558.5 C 662.732,557.51 668.898,559.51 674,564.5C 675.406,572.749 675.906,581.083 675.5,589.5C 676.5,589.5 677.5,589.5 678.5,589.5C 678.5,591.5 678.5,593.5 678.5,595.5C 675.813,595.664 673.146,595.497 670.5,595C 669.299,594.097 668.465,592.931 668,591.5C 661.459,597.126 654.292,597.96 646.5,594C 641.198,586.008 642.864,580.008 651.5,576C 656.167,575.333 660.833,574.667 665.5,574C 668.933,568.061 667.1,564.894 660,564.5C 655.456,564.372 652.623,566.539 651.5,571C 649.19,571.497 646.857,571.663 644.5,571.5C 644.946,564.391 648.613,560.057 655.5,558.5 Z"/></g>
<g><path style="opacity:1" fill="#6f6f6e" d="M 748.5,555.5 C 748.5,556.833 748.5,558.167 748.5,559.5C 752.042,559.187 755.375,559.521 758.5,560.5C 754.833,560.5 751.167,560.5 747.5,560.5C 747.216,558.585 747.549,556.919 748.5,555.5 Z"/></g>
<g><path style="opacity:1" fill="#585857" d="M 840.5,559.5 C 840.56,558.957 840.893,558.624 841.5,558.5C 842.817,564.988 842.817,571.322 841.5,577.5C 841.823,571.31 841.49,565.31 840.5,559.5 Z"/></g>
<g><path style="opacity:1" fill="#050505" d="M 518.5,560.5 C 521.167,560.5 523.833,560.5 526.5,560.5C 526.5,570.167 526.5,579.833 526.5,589.5C 531.64,590.488 536.974,590.821 542.5,590.5C 542.5,580.5 542.5,570.5 542.5,560.5C 545.167,560.5 547.833,560.5 550.5,560.5C 550.5,570.167 550.5,579.833 550.5,589.5C 551.919,590.451 553.585,590.784 555.5,590.5C 555.5,595.167 555.5,599.833 555.5,604.5C 553.5,604.5 551.5,604.5 549.5,604.5C 549.5,601.5 549.5,598.5 549.5,595.5C 539.167,595.5 528.833,595.5 518.5,595.5C 518.5,583.833 518.5,572.167 518.5,560.5 Z"/></g>
<g><path style="opacity:1" fill="#070706" d="M 611.5,560.5 C 611.5,565.167 611.5,569.833 611.5,574.5C 616.833,574.5 622.167,574.5 627.5,574.5C 627.5,569.833 627.5,565.167 627.5,560.5C 630.167,560.5 632.833,560.5 635.5,560.5C 635.5,572.167 635.5,583.833 635.5,595.5C 632.833,595.5 630.167,595.5 627.5,595.5C 627.5,590.167 627.5,584.833 627.5,579.5C 622.167,579.5 616.833,579.5 611.5,579.5C 611.5,584.833 611.5,590.167 611.5,595.5C 608.833,595.5 606.167,595.5 603.5,595.5C 603.5,583.833 603.5,572.167 603.5,560.5C 606.167,560.5 608.833,560.5 611.5,560.5 Z"/></g>
<g><path style="opacity:1" fill="#e8e8e4" d="M 840.5,559.5 C 841.49,565.31 841.823,571.31 841.5,577.5C 837.116,577.826 832.783,577.492 828.5,576.5C 832.525,570.815 836.525,565.149 840.5,559.5 Z"/></g>
<g><path style="opacity:1" fill="#e7e7e3" d="M 574.5,564.5 C 582.514,563.189 586.514,566.522 586.5,574.5C 580.833,574.5 575.167,574.5 569.5,574.5C 569.075,570.017 570.741,566.683 574.5,564.5 Z"/></g>
<g><path style="opacity:1" fill="#515150" d="M 720.5,551.5 C 722.132,558.937 722.799,566.604 722.5,574.5C 721.416,567.017 720.749,559.35 720.5,551.5 Z"/></g>
<g><path style="opacity:1" fill="#a5a5a2" d="M 611.5,560.5 C 612.485,564.634 612.818,568.968 612.5,573.5C 617.167,573.5 621.833,573.5 626.5,573.5C 626.182,568.968 626.515,564.634 627.5,560.5C 627.5,565.167 627.5,569.833 627.5,574.5C 622.167,574.5 616.833,574.5 611.5,574.5C 611.5,569.833 611.5,565.167 611.5,560.5 Z"/></g>
<g><path style="opacity:1" fill="#5e5e5c" d="M 501.5,579.5 C 504.355,578.197 507.355,578.197 510.5,579.5C 510.376,580.107 510.043,580.44 509.5,580.5C 507.052,579.527 504.385,579.194 501.5,579.5 Z"/></g>
<g><path style="opacity:1" fill="#777775" d="M 595.5,579.5 C 586.619,579.845 577.952,580.845 569.5,582.5C 568.596,581.791 568.263,580.791 568.5,579.5C 577.5,579.5 586.5,579.5 595.5,579.5 Z"/></g>
<g><path style="opacity:1" fill="#e0e0dc" d="M 665.5,578.5 C 666.693,578.97 667.36,579.97 667.5,581.5C 665.196,590.236 660.03,592.569 652,588.5C 651.104,585.975 651.604,583.808 653.5,582C 657.593,580.758 661.593,579.591 665.5,578.5 Z"/></g>
<g><path style="opacity:1" fill="#8d8d8b" d="M 627.5,595.5 C 626.513,590.695 626.179,585.695 626.5,580.5C 621.833,580.5 617.167,580.5 612.5,580.5C 612.821,585.695 612.487,590.695 611.5,595.5C 611.5,590.167 611.5,584.833 611.5,579.5C 616.833,579.5 622.167,579.5 627.5,579.5C 627.5,584.833 627.5,590.167 627.5,595.5 Z"/></g>
<g><path style="opacity:1" fill="#898986" d="M 819.5,577.5 C 819.5,579.833 819.5,582.167 819.5,584.5C 827.167,584.5 834.833,584.5 842.5,584.5C 842.5,588.167 842.5,591.833 842.5,595.5C 845.167,595.5 847.833,595.5 850.5,595.5C 847.713,596.477 844.713,596.81 841.5,596.5C 841.5,592.833 841.5,589.167 841.5,585.5C 833.833,585.5 826.167,585.5 818.5,585.5C 818.194,582.615 818.527,579.948 819.5,577.5 Z"/></g>
<g><path style="opacity:1" fill="#acaca9" d="M 857.5,584.5 C 855.735,585.461 853.735,585.795 851.5,585.5C 851.813,589.042 851.479,592.375 850.5,595.5C 850.5,591.833 850.5,588.167 850.5,584.5C 852.833,584.5 855.167,584.5 857.5,584.5 Z"/></g>
<g><path style="opacity:1" fill="#71716e" d="M 542.5,560.5 C 542.5,570.5 542.5,580.5 542.5,590.5C 536.974,590.821 531.64,590.488 526.5,589.5C 531.5,589.5 536.5,589.5 541.5,589.5C 541.173,579.652 541.506,569.986 542.5,560.5 Z"/></g>
<g><path style="opacity:1" fill="#393938" d="M 550.5,589.5 C 552.5,589.5 554.5,589.5 556.5,589.5C 556.821,594.695 556.487,599.695 555.5,604.5C 555.5,599.833 555.5,595.167 555.5,590.5C 553.585,590.784 551.919,590.451 550.5,589.5 Z"/></g>
<g><path style="opacity:1" fill="#9e9e9b" d="M 518.5,560.5 C 518.5,572.167 518.5,583.833 518.5,595.5C 528.833,595.5 539.167,595.5 549.5,595.5C 549.5,598.5 549.5,601.5 549.5,604.5C 548.527,602.052 548.194,599.385 548.5,596.5C 538.167,596.5 527.833,596.5 517.5,596.5C 517.172,584.322 517.505,572.322 518.5,560.5 Z"/></g>
<g><path style="opacity:1" fill="#161615" d="M 228.5,654.5 C 231.448,654.223 234.281,654.556 237,655.5C 248.945,692.053 265.612,726.053 287,757.5C 226.566,801.634 166.4,846.134 106.5,891C 104.945,892.289 103.279,892.956 101.5,893C 66.0431,847.256 40.2098,796.422 24,740.5C 19.491,724.783 17.1576,708.783 17,692.5C 87.5348,679.551 158.035,666.884 228.5,654.5 Z"/></g>
<g><path style="opacity:1" fill="#171717" d="M 899.5,654.5 C 975.57,667.067 1051.57,680.067 1127.5,693.5C 1118.37,760.74 1093.54,821.407 1053,875.5C 1048.97,880.532 1044.63,885.198 1040,889.5C 977.844,845.348 915.677,801.181 853.5,757C 867.691,741.101 878.191,722.934 885,702.5C 890.345,686.632 895.179,670.632 899.5,654.5 Z"/></g>
<g><path style="opacity:1" fill="#f1f1ed" d="M 231.5,657.5 C 233.124,657.36 234.29,658.027 235,659.5C 245.896,694.124 261.729,726.291 282.5,756C 222.937,800.567 163.104,844.734 103,888.5C 62.515,836.859 35.515,778.859 22,714.5C 20.8626,707.88 20.3626,701.214 20.5,694.5C 91.0132,682.471 161.347,670.138 231.5,657.5 Z"/></g>
<g><path style="opacity:1" fill="#f1f1ed" d="M 901.5,658.5 C 975.544,670.887 1049.54,683.554 1123.5,696.5C 1117.93,740.714 1104.43,782.381 1083,821.5C 1070.71,844.429 1056.21,865.762 1039.5,885.5C 979.806,842.639 919.972,799.973 860,757.5C 880.281,727.557 894.114,694.557 901.5,658.5 Z"/></g>
<g><path style="opacity:1" fill="#0c0c0c" d="M 109.5,773.5 C 108.957,773.56 108.624,773.893 108.5,774.5C 116.807,775.498 125.14,775.831 133.5,775.5C 133.5,777.833 133.5,780.167 133.5,782.5C 121.833,782.5 110.167,782.5 98.5,782.5C 98.0004,776.306 100,771.139 104.5,767C 111.11,763.111 117.277,758.611 123,753.5C 126.746,742.578 122.912,738.078 111.5,740C 108.394,742.216 106.727,745.216 106.5,749C 103.854,749.497 101.187,749.664 98.5,749.5C 97.7908,741.086 101.457,735.586 109.5,733C 116.576,731.644 123.243,732.644 129.5,736C 135.422,742.727 135.922,749.894 131,757.5C 123.855,762.976 116.688,768.309 109.5,773.5 Z"/></g>
<g><path style="opacity:1" fill="#0b0b0b" d="M 151.5,732.5 C 162.422,730.375 169.922,734.375 174,744.5C 175.962,753.175 175.962,761.842 174,770.5C 169.773,782.529 161.606,786.362 149.5,782C 144.655,778.811 141.822,774.311 141,768.5C 140.13,760.103 140.463,751.77 142,743.5C 144.314,739.025 147.48,735.358 151.5,732.5 Z"/></g>
<g><path style="opacity:1" fill="#0a0a0a" d="M 942.5,773.5 C 941.957,773.56 941.624,773.893 941.5,774.5C 949.807,775.498 958.14,775.831 966.5,775.5C 966.5,777.833 966.5,780.167 966.5,782.5C 954.833,782.5 943.167,782.5 931.5,782.5C 931.26,776.72 933.093,771.72 937,767.5C 943.95,762.885 950.616,757.885 957,752.5C 958.888,742.387 954.721,738.221 944.5,740C 941.234,742.278 939.568,745.445 939.5,749.5C 936.833,749.5 934.167,749.5 931.5,749.5C 930.8,741.061 934.467,735.561 942.5,733C 952.157,730.38 959.991,732.88 966,740.5C 967.11,746.426 966.444,752.092 964,757.5C 956.855,762.976 949.688,768.309 942.5,773.5 Z"/></g>
<g><path style="opacity:1" fill="#0c0c0c" d="M 984.5,732.5 C 996.305,730.501 1003.8,735.168 1007,746.5C 1009.71,757.229 1008.71,767.562 1004,777.5C 997.055,784.069 989.222,785.236 980.5,781C 971.314,767.903 970.147,754.07 977,739.5C 979.396,736.933 981.896,734.6 984.5,732.5 Z"/></g>
<g><path style="opacity:1" fill="#040404" d="M 192.5,782.5 C 192.5,770.5 192.5,758.5 192.5,746.5C 188.5,746.5 184.5,746.5 180.5,746.5C 180.5,745.167 180.5,743.833 180.5,742.5C 187.223,742.975 191.89,740.142 194.5,734C 196.473,733.505 198.473,733.338 200.5,733.5C 200.5,749.833 200.5,766.167 200.5,782.5C 197.833,782.5 195.167,782.5 192.5,782.5 Z"/></g>
<g><path style="opacity:1" fill="#0d0d0c" d="M 1011.5,733.5 C 1023.83,733.5 1036.17,733.5 1048.5,733.5C 1048.66,735.857 1048.5,738.19 1048,740.5C 1037.1,752.336 1030.94,766.336 1029.5,782.5C 1026.5,782.5 1023.5,782.5 1020.5,782.5C 1022.43,766.691 1028.76,753.024 1039.5,741.5C 1030.92,740.501 1021.59,740.168 1011.5,740.5C 1011.5,738.167 1011.5,735.833 1011.5,733.5 Z"/></g>
<g><path style="opacity:1" fill="#ecece8" d="M 154.5,739.5 C 162.233,738.905 166.066,742.572 166,750.5C 167.387,759.086 166.22,767.253 162.5,775C 155.624,778.134 151.457,775.967 150,768.5C 149.333,761.167 149.333,753.833 150,746.5C 151.012,743.798 152.512,741.465 154.5,739.5 Z"/></g>
<g><path style="opacity:1" fill="#ecece8" d="M 987.5,739.5 C 993.756,739.242 997.589,742.242 999,748.5C 999.801,755.889 999.467,763.223 998,770.5C 996.268,775.617 992.768,777.45 987.5,776C 985.383,774.269 983.883,772.102 983,769.5C 982.333,762.167 982.333,754.833 983,747.5C 983.738,744.352 985.238,741.685 987.5,739.5 Z"/></g>
<g><path style="opacity:1" fill="#767674" d="M 1011.5,733.5 C 1011.5,735.833 1011.5,738.167 1011.5,740.5C 1021.59,740.168 1030.92,740.501 1039.5,741.5C 1029.83,741.5 1020.17,741.5 1010.5,741.5C 1010.19,738.615 1010.53,735.948 1011.5,733.5 Z"/></g>
<g><path style="opacity:1" fill="#7e7e7c" d="M 180.5,746.5 C 184.5,746.5 188.5,746.5 192.5,746.5C 192.5,758.5 192.5,770.5 192.5,782.5C 191.505,771.012 191.172,759.345 191.5,747.5C 187.629,747.815 183.962,747.482 180.5,746.5 Z"/></g>
<g><path style="opacity:1" fill="#b1b1ae" d="M 109.5,773.5 C 117.5,774.167 125.5,774.833 133.5,775.5C 125.14,775.831 116.807,775.498 108.5,774.5C 108.624,773.893 108.957,773.56 109.5,773.5 Z"/></g>
<g><path style="opacity:1" fill="#b2b2af" d="M 942.5,773.5 C 950.5,774.167 958.5,774.833 966.5,775.5C 958.14,775.831 949.807,775.498 941.5,774.5C 941.624,773.893 941.957,773.56 942.5,773.5 Z"/></g>
<g><path style="opacity:1" fill="#d3d3d0" d="M 779.5,887.5 C 780.906,887.973 781.573,888.973 781.5,890.5C 725.167,890.5 668.833,890.5 612.5,890.5C 668.341,890.166 724.007,889.166 779.5,887.5 Z"/></g>
<g><path style="opacity:1" fill="#3c3c3a" d="M 360.5,889.5 C 444.332,890.499 528.332,890.833 612.5,890.5C 668.833,890.5 725.167,890.5 781.5,890.5C 640.999,891.833 500.333,891.833 359.5,890.5C 359.624,889.893 359.957,889.56 360.5,889.5 Z"/></g>
<g><path style="opacity:1" fill="#3c3c3c" d="M 354.5,892.5 C 440.332,893.499 526.332,893.833 612.5,893.5C 612.5,893.833 612.5,894.167 612.5,894.5C 526.164,894.833 439.831,894.5 353.5,893.5C 353.624,892.893 353.957,892.56 354.5,892.5 Z"/></g>
<g><path style="opacity:1" fill="#5b5b5a" d="M 787.5,892.5 C 788.043,892.56 788.376,892.893 788.5,893.5C 729.837,894.5 671.17,894.833 612.5,894.5C 612.5,894.167 612.5,893.833 612.5,893.5C 671.002,893.832 729.336,893.499 787.5,892.5 Z"/></g>
</svg>
